<svg width="120" height="109" viewBox="0 0 120 109" fill="none" xmlns="http://www.w3.org/2000/svg">
<path d="M48.098 14.1889L48.0951 14.1889C45.1884 14.183 42.4375 14.312 39.6988 14.8296L39.3031 14.9105L39.3026 14.9106C34.5856 15.8732 30.0514 17.4492 25.906 19.7755C25.9047 19.7763 25.9034 19.777 25.9022 19.7777L25.5064 20.0021L25.5019 20.0046C23.8948 20.9104 22.3658 21.8763 20.9017 22.9521C20.9003 22.9531 20.8989 22.9542 20.8975 22.9552L20.2563 23.4318L20.2485 23.4376L20.2406 23.4433C18.3673 24.8075 16.7078 26.3575 15.0304 28.0927C15.0298 28.0933 15.0292 28.0939 15.0286 28.0945L14.6718 28.4656L14.6686 28.4689C8.4887 34.866 4.52941 42.7671 2.69501 51.5059C2.69465 51.5075 2.6943 51.5092 2.69395 51.5109L2.58277 52.0549L2.58059 52.0656L2.58057 52.0656C2.33377 53.2403 2.18267 55.1276 2.09769 56.8244C2.05629 57.6511 2.03208 58.3971 2.01824 58.9364C2.01133 59.2057 2.00703 59.4227 2.00447 59.5714C2.00318 59.6458 2.00234 59.703 2.00182 59.7412L2.00126 59.7838L2.0012 59.789L2.00115 59.7939L2.00004 60.3365L2.00091 60.3782C2.0018 60.4201 2.0032 60.4827 2.00518 60.5638C2.00915 60.7261 2.01546 60.9625 2.02478 61.2558C2.04342 61.8431 2.074 62.6558 2.12168 63.5572C2.21869 65.3911 2.38059 67.4646 2.63067 68.7847L2.71168 69.1788L2.71179 69.1793C3.67702 73.8807 5.25736 78.3999 7.59015 82.5318C7.59083 82.533 7.59151 82.5342 7.59219 82.5354L7.81725 82.9299L7.81981 82.9344C8.79062 84.6466 9.84247 86.272 11.0142 87.8392C11.0143 87.8395 11.0145 87.8397 11.0147 87.84L11.2564 88.1629L11.2615 88.1697L11.2665 88.1765C17.9438 97.259 28.4943 103.681 39.6043 105.686C39.6045 105.686 39.6046 105.686 39.6048 105.686L40.1134 105.777L40.1283 105.78L40.1432 105.782C42.6085 106.262 45.082 106.358 47.7498 106.366C47.7499 106.366 47.75 106.366 47.7501 106.366C47.7508 106.366 47.7516 106.366 47.7523 106.366L48.3028 106.367L48.3068 106.367C50.4942 106.376 52.5529 106.333 54.5995 106.054C54.6027 106.053 54.6058 106.053 54.609 106.052L55.2764 105.954L55.277 105.954C60.6139 105.173 65.9177 103.454 70.5522 100.797C70.5534 100.796 70.5547 100.795 70.5559 100.794L70.9329 100.576L70.9376 100.573C72.935 99.4207 74.8256 98.204 76.6192 96.8296L76.6217 96.8277M48.098 14.1889L77.8383 98.4151M48.098 14.1889L48.6698 14.1892L48.6747 12.1892M48.098 14.1889L48.6717 14.1892M76.6217 96.8277L77.8383 98.4151M76.6217 96.8277L76.9272 96.5927L76.9329 96.5884L76.9386 96.5841C78.468 95.4253 79.8406 94.0968 81.2626 92.6352C81.2629 92.6349 81.2632 92.6345 81.2636 92.6342L81.6013 92.2852L81.6022 92.2842C87.8715 85.8135 92.1685 77.7233 93.7737 68.8794C93.7738 68.8788 93.7739 68.8782 93.774 68.8776L93.8654 68.3707L93.8683 68.3548L93.8714 68.339C94.3602 65.8581 94.4475 63.3669 94.4559 60.6705C94.4559 60.6704 94.4559 60.6704 94.4559 60.6704C94.4559 60.6696 94.4559 60.6688 94.4559 60.668L94.457 60.1043L94.457 60.1003C94.4652 57.9303 94.4319 55.9128 94.1452 53.9049L94.0464 53.28L94.0444 53.2676C93.2349 47.9321 91.5395 42.661 88.8723 38.0361C88.8713 38.0345 88.8704 38.0328 88.8694 38.0311L88.6499 37.6553L88.6472 37.6506C87.4916 35.6595 86.2715 33.775 84.8931 31.987C84.8931 31.9869 84.893 31.9869 84.893 31.9869C84.8924 31.986 84.8917 31.9852 84.8911 31.9844L84.6555 31.6798L84.6511 31.6741L84.6468 31.6684C83.4851 30.1445 82.1532 28.7765 80.6878 27.3593C80.6869 27.3585 80.686 27.3576 80.6851 27.3567L80.3351 27.02L80.3341 27.0191C74.1117 21.0267 66.4605 16.9313 58.0006 15.0902C57.9984 15.0897 57.9961 15.0893 57.9939 15.0888L57.4134 14.9668L57.4123 14.9666C54.5533 14.364 51.7114 14.1967 48.6717 14.1892M76.6217 96.8277L48.6717 14.1892M77.8383 98.4151C75.9576 99.8564 73.9895 101.121 71.937 102.305L71.5508 102.529C66.6738 105.326 61.1245 107.119 55.5668 107.933M77.8383 98.4151L55.5668 107.933M55.5668 107.933L54.88 108.034C52.6865 108.334 50.5105 108.376 48.299 108.367M55.5668 107.933L48.299 108.367M48.299 108.367L47.746 108.366C45.0456 108.357 42.4181 108.263 39.7612 107.746M48.299 108.367L39.7612 107.746M39.7612 107.746L39.2497 107.654C27.6531 105.562 16.6458 98.8699 9.6551 89.3612M39.7612 107.746L9.6551 89.3612M9.6551 89.3612L9.41292 89.0376C8.18693 87.3978 7.08934 85.701 6.08001 83.9209M9.6551 89.3612L6.08001 83.9209M6.08001 83.9209L5.85069 83.5189C3.39979 79.1788 1.75358 74.4568 0.752651 69.5815M6.08001 83.9209L0.752651 69.5815M0.752651 69.5815L0.66863 69.1729L0.752651 69.5815ZM81.7215 25.5785C75.2312 19.3281 67.2446 15.0537 58.4189 13.1344L57.8248 13.0096C54.7761 12.367 51.7812 12.1968 48.6747 12.1892M81.7215 25.5785L39.3126 12.8672C42.2341 12.3136 45.1319 12.1828 48.0991 12.1889L48.6747 12.1892M81.7215 25.5785L82.0755 25.919L81.7215 25.5785ZM48.6747 12.1892L48.6737 14.1892L48.6717 14.1892" fill="#6CC6FF" stroke="#6CC6FF" stroke-width="4"/>
<path d="M73.0659 22.577C73.2 22.6372 73.3341 22.6973 73.4723 22.7592C74.2834 23.1249 75.0877 23.5026 75.8884 23.8902C75.8022 24.5411 75.7207 25.1422 75.5121 25.7662C75.6433 25.7057 75.7745 25.6453 75.9097 25.583C77.3649 25.0686 78.9701 25.2763 80.3543 25.9017C80.9199 26.2197 81.4083 26.605 81.9111 27.0127C82.3174 27.2883 82.646 27.3859 83.1209 27.5014C84.3126 27.8603 84.9277 28.7581 85.6729 29.7057C85.758 29.8125 85.8431 29.9192 85.9308 30.0292C91.2494 36.7329 94.6574 44.5325 96.0218 52.9676C96.0438 53.0949 96.0659 53.2222 96.0886 53.3534C96.5028 55.776 96.4363 58.21 96.3981 60.659C96.0954 60.1082 95.932 59.6049 95.8057 58.9905C95.7497 58.7235 95.7497 58.7235 95.6926 58.4512C95.6537 58.2628 95.6149 58.0744 95.5749 57.8803C94.812 53.4868 94.812 53.4868 92.0704 50.1537C91.5923 49.8605 91.1108 49.5751 90.6246 49.2956C90.1888 49.0281 90.1888 49.0281 89.6948 48.5826C89.033 48.1311 88.5326 48.2243 87.7426 48.2777C87.5792 48.6996 87.5792 48.6996 87.5545 49.2157C88.0846 50.058 88.5689 50.3094 89.5067 50.5992C90.8042 51.0595 91.4271 51.6017 92.0932 52.7771C92.4994 53.7059 92.3187 54.6261 91.9645 55.5353C91.3826 56.7159 90.5017 57.1629 89.3185 57.6458C88.4735 57.9957 88.0778 58.4178 87.5545 59.1583C87.0048 58.6845 86.7513 58.1669 86.4446 57.5153C86.34 57.2955 86.2354 57.0757 86.1277 56.8492C86.0727 56.7325 86.0177 56.6157 85.9611 56.4954C85.6712 55.8803 85.3771 55.2673 85.0826 54.6545C85.0226 54.5296 84.9627 54.4047 84.9009 54.2761C84.2923 53.0144 83.653 51.77 83.0033 50.5289C82.9017 50.3344 82.8001 50.1399 82.6954 49.9396C82.1698 48.9373 82.1698 48.9373 81.5962 47.9619C81.3451 47.5273 81.3451 47.5273 81.3451 47.1521C81.2209 47.1521 81.0967 47.1521 80.9688 47.1521C80.8803 48.7374 80.9426 49.8897 81.7214 51.2792C82.3712 52.4475 82.8848 53.4444 83.0386 54.7849C83.184 56 83.5983 56.715 84.3557 57.6575C84.5402 57.9075 84.7245 58.1576 84.9084 58.4079C85.1005 58.658 85.2926 58.9082 85.4847 59.1583C85.6484 59.3806 85.6484 59.3806 85.8154 59.6075C86.6077 60.7127 86.6077 60.7127 87.7426 61.4094C88.5752 61.4822 89.0876 61.4311 89.8124 61.0342C89.4177 62.2622 88.969 63.4617 88.4901 64.6594C88.4177 64.8417 88.3452 65.024 88.2706 65.2118C88.0363 65.801 87.8013 66.3899 87.5662 66.9787C87.4035 67.3867 87.2409 67.7947 87.0782 68.2028C86.8352 68.8123 86.592 69.4219 86.3487 70.0313C85.8983 71.1596 85.451 72.2889 85.0077 73.42C82.2732 80.3794 82.2732 80.3794 80.2705 83.2798C79.8928 83.9862 79.8311 84.7091 79.7362 85.4957C79.5885 86.3496 79.1249 86.7411 78.4756 87.2625C78.367 87.336 78.2583 87.4095 78.1463 87.4853C78.2084 87.5472 78.2705 87.6091 78.3345 87.6729C78.3992 88.2347 78.4411 88.6304 78.3345 89.1737C77.7012 89.7879 77.0607 89.9735 76.2294 90.2406C74.7561 90.7488 73.7273 91.7618 72.5926 92.7929C72.3728 92.9921 72.3728 92.9921 72.1486 93.1952C72.0211 93.3149 71.8935 93.4346 71.762 93.558C71.0412 94.1234 70.398 94.2904 69.4909 94.2387C69.099 93.2153 68.7357 92.1877 68.3972 91.1456C68.3492 90.9986 68.3012 90.8515 68.2518 90.7C68.151 90.3909 68.0505 90.0818 67.9501 89.7726C67.7984 89.3056 67.6458 88.839 67.4931 88.3723C67.2544 87.6408 67.0193 86.9081 66.7878 86.1743C66.6839 85.846 66.5782 85.5182 66.4722 85.1906C65.7835 82.9227 66.1629 81.2206 66.9507 79.02C67.6502 77.0535 68.1804 75.4528 67.4314 73.4185C67.0152 72.6257 66.3877 72.1967 65.5394 71.9148C65.7041 71.0237 65.7041 71.0237 65.9158 70.6016C65.6053 70.6016 65.2948 70.6016 64.9749 70.6016C65.037 70.4198 65.0991 70.2379 65.1631 70.0506C65.3922 69.2348 65.484 68.4413 65.3513 67.6001C65.0137 67.0616 64.79 66.7575 64.2223 66.4745C63.6485 66.4301 63.075 66.4028 62.5002 66.3763C61.9643 66.2869 61.9643 66.2869 61.6108 66.0451C61.3999 65.7241 61.3999 65.7241 61.3999 64.9738C59.0331 64.8596 56.7143 65.2516 54.5201 66.1345C52.4893 66.9459 52.4893 66.9459 51.4272 66.6621C50.4428 66.2215 49.7123 65.5698 48.9811 64.7862C48.8715 64.687 48.7618 64.5879 48.6489 64.4857C47.077 63.0358 45.3895 60.8373 45.1671 58.6622C45.1296 57.6487 45.2524 56.9002 45.6552 55.9772C45.9271 55.1578 45.9816 54.1249 45.5971 53.3399C45.5341 53.217 45.471 53.0942 45.406 52.9676C45.121 51.5796 45.5564 50.5804 46.3013 49.4187C47.3791 47.9415 48.5288 46.7429 50.0278 45.6983C51.0615 44.9649 51.2147 44.6134 51.4272 43.4002C52.4285 41.8879 53.638 41.3328 55.3786 40.9615C55.909 40.8789 56.4404 40.8212 56.9743 40.7673C57.1933 40.7437 57.1933 40.7437 57.4167 40.7198C57.878 40.6704 58.3394 40.6224 58.8009 40.5745C59.2643 40.5258 59.7277 40.4768 60.191 40.4273C60.4779 40.3968 60.7648 40.3667 61.0517 40.3371C61.7416 40.2643 62.4151 40.1685 63.0933 40.0235C64.382 39.9011 64.382 39.9011 64.9514 40.2228C65.1631 40.5863 65.1631 40.5863 65.316 41.2194C65.5364 41.8902 65.744 42.2359 66.3075 42.6659C66.8944 42.9448 67.4959 42.9235 68.137 42.9569C68.55 43.025 68.55 43.025 68.8911 43.4588C69.0017 43.7084 69.0017 43.7084 69.1145 43.963C69.9676 44.8683 71.1536 45.1171 72.3133 45.4638C72.3016 45.2355 72.29 45.0072 72.278 44.772C72.2741 44.0423 72.4313 43.6185 72.8778 43.025C72.9554 43.0997 73.033 43.1745 73.113 43.2515C73.2216 43.3508 73.3303 43.4502 73.4423 43.5526C73.5471 43.6506 73.6518 43.7485 73.7598 43.8494C75.0026 44.7097 76.2113 44.7925 77.6759 44.8072C78.9713 44.8202 79.9637 44.9412 81.1569 45.4638C81.0774 44.9122 80.9947 44.3614 80.91 43.8106C80.8878 43.6542 80.8656 43.4979 80.8427 43.3368C80.8191 43.1863 80.7954 43.0358 80.7711 42.8807C80.7504 42.7421 80.7297 42.6036 80.7084 42.4609C80.568 42.0081 80.4018 41.8132 80.028 41.5242C79.4645 41.4431 79.4645 41.4431 78.8402 41.4422C77.7912 41.3839 77.2186 41.3085 76.4529 40.5863C76.3204 40.3398 76.1936 40.09 76.0765 39.8359C78.1912 39.0655 80.0616 39.0004 82.2859 39.0855C82.1724 38.9133 82.0589 38.7411 81.9419 38.5637C81.1729 37.3892 80.4291 36.2356 79.8398 34.9584C79.6535 35.4536 79.4672 35.9489 79.2753 36.4592C79.2016 36.3547 79.1278 36.2502 79.0519 36.1426C78.6471 35.6276 78.2809 35.1854 77.77 34.7708C77.1584 34.7809 77.1584 34.7809 76.641 34.9584C76.4404 35.6183 76.4404 35.6183 76.641 36.2481C76.9366 36.8743 76.8172 37.3044 76.641 37.9599C76.2765 38.4172 76.2765 38.4172 75.7002 38.7103C75.0676 38.7691 74.4518 38.7544 73.8186 38.7103C73.7565 39.2675 73.6944 39.8246 73.6304 40.3987C73.2631 40.0325 73.0945 39.7361 72.8778 39.2731C72.7225 39.3389 72.5673 39.4046 72.4074 39.4724C71.7488 39.4607 71.7488 39.4607 71.3387 39.0972C70.9585 38.6656 70.5944 38.2279 70.2435 37.7723C70.1038 37.9 69.9641 38.0277 69.8201 38.1592C69.3027 38.5227 69.3027 38.5227 68.9369 38.4845C68.5005 38.316 68.2205 38.1115 67.8643 37.8097C67.7368 37.7037 67.6093 37.5976 67.478 37.4884C67.281 37.3213 67.281 37.3213 67.08 37.1509C65.0783 35.4548 65.0783 35.4548 62.5391 35.0639C60.7611 35.3178 59.5117 36.4359 58.3892 37.7723C58.0168 38.328 57.759 38.8017 57.6366 39.4607C53.9354 40.1819 53.9354 40.1819 52.9002 39.6102C52.2023 39.0409 51.6952 38.4688 51.5522 37.5569C51.5342 36.5338 51.6514 35.9338 52.368 35.146C53.2787 34.4082 54.0368 34.2843 55.1905 34.3956C55.5077 34.5113 55.8217 34.6362 56.1313 34.7708C56.569 34.8423 57.008 34.9067 57.4484 34.9584C57.2773 33.67 57.0603 32.8831 56.1313 31.9569C55.9431 31.7693 55.755 31.5817 55.5668 31.3941C56.6144 30.8964 57.6622 30.3991 58.7101 29.9021C59.0662 29.7332 59.4223 29.5642 59.7783 29.395C60.2915 29.1513 60.8049 28.9078 61.3183 28.6644C61.555 28.5518 61.555 28.5518 61.7966 28.4369C62.6606 28.0277 63.5284 27.6361 64.4105 27.2669C64.3585 26.9029 64.3585 26.9029 64.2223 26.5166C63.5244 26.0527 63.0418 26.0742 62.2231 26.0366C61.6957 25.9389 61.5252 25.8194 61.2117 25.391C61.1058 24.7579 61.1058 24.7579 61.2117 24.0778C62.0467 23.2387 62.9198 22.8486 64.0224 22.4481C64.1678 22.3928 64.3132 22.3376 64.463 22.2806C67.6318 21.0923 70.0405 21.2047 73.0659 22.577Z" fill="white"/>
<path d="M18.6869 24.2656C18.8732 24.4513 18.8732 24.4513 19.0633 24.6408C19.0625 24.9801 19.0625 24.9801 18.8751 25.3912C18.5101 25.7382 18.1572 26.038 17.7579 26.3409C17.6432 26.4295 17.5285 26.5181 17.4103 26.6094C16.1912 27.5293 14.8905 28.3098 13.5757 29.0845C13.0593 29.3895 12.5699 29.7052 12.1012 30.0811C12.1726 30.6984 12.1726 30.6984 12.4776 31.2066C12.9156 31.2756 13.3547 31.3384 13.7947 31.3942C13.7016 32.3228 13.7016 32.3228 13.6065 33.2702C14.1819 32.7662 14.1819 32.7662 14.3827 32.215C14.8971 31.2919 15.6254 30.5776 16.429 29.8935C16.5532 29.8935 16.6774 29.8935 16.8053 29.8935C17.0201 29.4805 17.1895 29.1138 17.311 28.6624C17.6217 28.0871 17.9384 28.0342 18.5348 27.8204C19.059 27.5461 19.2984 27.1276 19.6013 26.6332C19.8159 26.3291 19.8159 26.3291 20.3804 25.9539C20.8743 25.9188 20.8743 25.9188 21.3212 25.9539C21.5094 26.1415 21.5094 26.1415 21.5211 26.6223C21.5173 26.7732 21.5134 26.9241 21.5094 27.0795C21.6658 27.0367 21.8223 26.9939 21.9835 26.9498C22.1879 26.8959 22.3924 26.842 22.6031 26.7864C22.8061 26.732 23.0091 26.6776 23.2183 26.6215C23.7673 26.5167 23.7673 26.5167 24.3318 26.7043C24.2076 26.8901 24.0834 27.0758 23.9555 27.2671C23.971 27.8443 23.971 27.8443 24.1437 28.3927C24.6926 28.7576 25.014 28.8528 25.649 28.9555C25.3944 29.8867 24.8521 30.2707 24.0731 30.7728C23.9644 30.846 23.8558 30.9191 23.7438 30.9945C22.2981 31.957 22.2981 31.957 21.5094 31.957C21.6025 32.3285 21.6025 32.3285 21.6975 32.7074C21.4574 32.6917 21.2173 32.676 20.9699 32.6598C20.6558 32.6404 20.3417 32.6211 20.0276 32.6019C19.8692 32.5914 19.7108 32.5808 19.5476 32.57C19.396 32.5609 19.2444 32.5519 19.0882 32.5425C18.9483 32.5337 18.8084 32.5248 18.6642 32.5157C18.2932 32.4943 18.2932 32.4943 17.9343 32.7074C17.8109 33.1815 17.8109 33.1815 17.7461 33.6454C17.8936 33.5525 18.0411 33.4597 18.193 33.364C18.6869 33.0826 18.6869 33.0826 19.0633 33.0826C19.0633 33.454 19.0633 33.8255 19.0633 34.2082C19.4979 34.2701 19.9326 34.332 20.3804 34.3958C20.4425 34.5815 20.5046 34.7672 20.5686 34.9586C19.1705 36.432 19.1705 36.432 18.0636 36.4945C17.8968 36.4829 17.7299 36.4713 17.558 36.4593C17.558 36.0879 17.558 35.7164 17.558 35.3337C16.1268 35.7319 15.4667 36.3957 14.7355 37.667C13.9714 38.9924 13.2946 39.7825 11.866 40.3754C11.2745 40.6425 11.2745 40.6425 10.7841 40.9616C10.5402 41.6545 10.5619 42.0429 10.6665 42.7555C10.5643 43.4177 10.1717 43.588 9.65585 43.9859C9.05907 44.5438 8.69634 45.2301 8.29534 45.9351C7.68946 46.7827 6.93701 47.023 5.95066 47.2578C5.17979 47.4272 5.17979 47.4272 4.57472 47.9027C4.45285 48.3849 4.45285 48.3849 4.38656 48.8407C4.07609 48.7788 3.76562 48.7169 3.44574 48.6531C3.20123 49.2778 2.95875 49.9034 2.71661 50.529C2.64797 50.7044 2.57932 50.8797 2.5086 51.0603C2.00926 52.3547 1.57503 53.6159 1.45827 55.0079C1.41915 55.4648 1.39455 55.7446 1.18779 56.1569C1.55566 56.1337 1.55566 56.1337 1.94044 55.9693C2.17604 55.5552 2.17604 55.5552 2.32852 55.0548C2.70694 53.944 2.70694 53.944 3.25758 53.5306C3.44386 53.5306 3.63014 53.5306 3.82207 53.5306C3.83562 54.2333 3.83924 54.9012 3.7471 55.5993C3.72139 55.7949 3.69567 55.9905 3.66918 56.1921C3.64081 56.3766 3.61243 56.5611 3.58319 56.7512C3.58017 57.3252 3.58017 57.3252 4.08741 57.7251C4.7058 58.3537 4.75122 58.8929 4.80992 59.733C4.89857 60.8653 4.89857 60.8653 5.13921 61.9724C6.26364 61.8577 7.02208 61.6635 7.87933 60.9054C8.44182 60.4366 8.7696 60.1817 9.51399 60.2371C11.7013 60.7001 13.4429 61.5002 14.7473 63.3207C15.5331 64.3939 16.3821 64.5954 17.652 64.8684C18.706 65.0985 19.5677 65.2945 20.218 66.2146C20.4567 66.8727 20.4198 67.5201 20.4039 68.21C20.4022 68.3497 20.4005 68.4895 20.3988 68.6335C20.3944 68.977 20.3876 69.3204 20.3804 69.6638C20.1068 69.7393 20.1068 69.7393 19.8277 69.8163C19.6375 69.8898 19.4473 69.9633 19.2514 70.039C19.1893 70.2247 19.1272 70.4105 19.0633 70.6018C19.1991 70.5051 19.3349 70.4084 19.4749 70.3087C20.0041 70.039 20.0041 70.039 20.5098 70.0742C20.9449 70.2266 20.9449 70.2266 21.3212 70.6018C21.4454 70.5399 21.5696 70.478 21.6975 70.4142C22.7684 70.3116 23.3084 70.4905 24.1437 71.1646C24.2057 71.2884 24.2678 71.4122 24.3318 71.5398C25.131 71.8471 26.0468 71.7674 26.8908 71.7585C27.2608 71.7706 27.2608 71.7706 27.9069 71.915C28.2002 72.4389 28.2002 72.4389 28.4714 73.0406C29.04 73.4683 29.04 73.4683 29.6945 73.8144C31.164 74.6361 31.164 74.6361 31.482 75.2917C31.4495 76.2005 31.0974 76.8416 30.6588 77.6249C29.7365 79.3675 29.4391 81.1656 29.3299 83.1239C29.2443 84.4815 28.9723 85.7724 28.0716 86.8289C27.432 87.1615 26.8018 87.3394 26.101 87.503C25.5331 87.7166 25.2743 87.9504 24.8963 88.4234C24.6646 88.9618 24.6646 88.9618 24.5082 89.5607C24.4454 89.775 24.3826 89.9893 24.3178 90.21C24.2065 90.6269 24.1032 91.0461 24.0106 91.4675C23.8955 91.9764 23.7882 92.4473 23.5792 92.9257C22.9794 93.2423 22.9794 93.2423 22.4502 93.3009C22.5123 93.3628 22.5744 93.4248 22.6383 93.4885C22.646 93.8011 22.6464 94.114 22.6383 94.4265C22.324 94.502 22.324 94.502 22.0033 94.5789C21.2801 94.7376 21.2801 94.7376 20.9449 95.3645C20.775 96.776 21.3375 97.8112 22.0856 98.964C22.7787 99.7447 23.7853 100.163 24.7081 100.617C24.646 100.741 24.584 100.865 24.52 100.992C22.508 100.992 20.8202 99.1471 19.4499 97.8377C16.5444 94.9195 14.6293 91.2088 13.6065 87.2627C12.9704 84.8525 12.1085 83.3341 10.3754 81.5583C9.03972 80.1542 8.38949 78.5139 7.66764 76.7339C7.19922 75.5824 6.5772 74.5975 5.79925 73.629C5.35181 73.0607 5.14353 72.6971 5.04513 71.9736C5.1444 71.3179 5.30313 71.1054 5.7037 70.6018C5.65163 70.1606 5.52618 69.8727 5.32737 69.4762C5.28874 68.8086 5.28494 68.2823 5.51039 67.6486C5.73116 66.9507 5.78746 66.2854 5.8213 65.5602C5.82857 65.431 5.83585 65.3019 5.84335 65.1689C5.8609 64.8538 5.87658 64.5387 5.89186 64.2235C5.7781 64.1735 5.66434 64.1234 5.54714 64.0719C4.21821 63.3437 3.57582 61.5703 2.94433 60.266C2.5229 59.4275 2.22046 59.0514 1.37595 58.5957C1.11943 58.1714 1.11943 58.1714 0.940824 57.7163C0.879458 57.5647 0.818092 57.4131 0.754866 57.2568C0.711449 57.1415 0.668032 57.0261 0.623299 56.9073C0.499112 56.9073 0.374924 56.9073 0.246973 56.9073C-0.319257 46.9811 5.13712 36.5527 11.3486 29.1431C11.4577 28.9847 11.5669 28.8263 11.6793 28.6631C12.1553 28.1464 12.5734 27.9542 13.2021 27.665C13.9233 27.29 14.5181 26.7583 15.1354 26.2353C17.686 24.0993 17.686 24.0993 18.6869 24.2656Z" fill="white"/>
<path d="M53.3089 15.4486C52.9102 15.8793 52.5292 16.1575 52.0094 16.4291C51.8694 16.5026 51.7295 16.5761 51.5853 16.6518C51.44 16.7268 51.2947 16.8018 51.145 16.879C50.9997 16.9554 50.8544 17.0318 50.7047 17.1106C49.1633 17.9149 49.1633 17.9149 48.1932 17.8991C47.8381 17.8932 47.8381 17.8932 47.4758 17.8873C47.8134 18.6446 48.079 19.1339 48.793 19.5757C48.0988 19.8928 47.5588 19.9959 46.7974 19.9956C46.4963 20.0001 46.4963 20.0001 46.1892 20.0047C45.7727 20.0079 45.3562 20.0089 44.9397 20.0077C43.2079 20.0398 42.0474 20.5435 40.6314 21.4985C40.0337 21.8589 39.5473 21.8541 38.8556 21.862C37.4271 21.9298 36.7629 22.7217 35.8097 23.7028C34.9698 24.4181 34.3265 24.5956 33.2409 24.5499C32.7484 24.4421 32.5505 24.327 32.2111 23.9607C31.8298 23.2765 31.6917 22.9661 31.8583 22.202C32.3399 21.7078 32.7789 21.4606 33.4107 21.182C33.9745 20.9392 33.9745 20.9392 34.0927 20.3847C34.1005 20.2415 34.1083 20.0984 34.1163 19.9509C33.93 19.8271 33.7437 19.7033 33.5518 19.5757C33.3283 19.0833 33.3283 19.0833 33.1755 18.6377C32.896 18.6841 32.896 18.6841 32.611 18.7315C31.8532 18.8412 31.1179 18.8387 30.353 18.8253C33.026 16.6514 35.5458 15.8434 38.9541 15.7234C39.1704 15.7153 39.3867 15.7072 39.6096 15.6989C40.3108 15.6731 41.0121 15.6487 41.7133 15.6244C41.9503 15.616 42.1873 15.6076 42.4314 15.5989C46.0588 15.4712 49.6794 15.3925 53.3089 15.4486Z" fill="white"/>
<path d="M87.7426 76.9801C87.8668 76.9801 87.991 76.9801 88.119 76.9801C88.6293 77.5849 89.0469 78.1987 89.0833 78.9968C88.8066 79.5484 88.4151 79.7924 87.9308 80.1692C87.4258 81.0984 87.4882 82.0801 87.481 83.1096C87.4498 84.0816 87.2687 84.657 86.6137 85.4219C86.0512 85.8169 85.5761 85.8481 84.8967 85.844C84.6515 85.8455 84.6515 85.8455 84.4013 85.8469C83.9794 85.7971 83.9794 85.7971 83.6031 85.4219C83.5227 84.7615 83.527 84.4145 83.8912 83.8486C84.0134 83.7062 84.1357 83.5637 84.2616 83.417C85.0324 82.4012 85.0689 81.595 84.9202 80.3568C85.0938 80.2651 85.0938 80.2651 85.2708 80.1714C85.4229 80.0895 85.575 80.0075 85.7317 79.923C85.8823 79.8425 86.0329 79.762 86.1881 79.679C86.7614 79.3285 87.1048 79.0904 87.309 78.4384C87.349 78.2156 87.349 78.2156 87.3898 77.9884C87.5388 77.1833 87.5388 77.1833 87.7426 76.9801Z" fill="white"/>
<path d="M84.5439 35.709C84.8544 35.7709 85.1649 35.8328 85.4847 35.8966C85.5119 36.0165 85.5391 36.1365 85.5671 36.26C85.6372 36.6424 85.6372 36.6424 85.8611 36.8346C85.8694 37.2097 85.8684 37.585 85.8611 37.9601C85.8611 38.2078 85.8611 38.4554 85.8611 38.7105C86.0754 38.8193 86.0754 38.8193 86.294 38.9304C86.481 39.0281 86.668 39.1258 86.8607 39.2264C87.0462 39.3222 87.2318 39.4179 87.423 39.5166C87.9292 39.835 88.1982 40.0729 88.4953 40.5865C88.4953 40.7722 88.4953 40.9579 88.4953 41.1493C88.3712 41.2112 88.247 41.2731 88.119 41.3369C88.1462 41.4723 88.1733 41.6077 88.2013 41.7472C88.3483 42.48 88.3483 42.48 88.4953 43.2128C88.1073 43.377 88.1073 43.377 87.5545 43.4004C86.9456 43.0081 86.3763 42.5518 86.0492 41.8997C86.03 41.5989 86.0149 41.2979 86.0022 40.9968C85.9163 40.049 85.6619 39.7047 84.9202 39.0857C84.2095 38.2 83.9975 37.5737 83.9794 36.4594C84.2499 35.9904 84.2499 35.9904 84.5439 35.709Z" fill="#6CC6FF"/>
<path d="M26.1546 21.8032C26.4351 21.8083 26.4351 21.8083 26.7213 21.8135C26.8642 21.8178 27.007 21.8222 27.1542 21.8267C27.4091 22.3348 27.3546 22.7664 27.3424 23.3274C26.9077 23.3274 26.4731 23.3274 26.0253 23.3274C26.0369 23.5325 26.0485 23.7376 26.0605 23.9489C26.0253 24.6406 26.0253 24.6406 25.8371 24.9924C25.3481 25.2666 24.8718 25.3079 24.3186 25.3544C23.9375 25.3799 23.9375 25.3799 23.5203 25.5317C23.2028 25.5786 23.2028 25.5786 22.8618 25.3793C22.6383 25.0158 22.6383 25.0158 22.6148 24.453C22.6847 24.2673 22.7545 24.0816 22.8265 23.8902C23.2643 23.6998 23.7034 23.5122 24.1436 23.3274C24.3891 22.7654 24.3891 22.7654 24.52 22.2019C25.1636 21.774 25.4009 21.7855 26.1546 21.8032Z" fill="white"/>
<path d="M25.6489 31.957C25.6489 32.0808 25.6489 32.2046 25.6489 32.3322C25.3395 32.5674 25.3395 32.5674 24.9315 32.8129C24.7318 32.9352 24.7318 32.9352 24.528 33.0599C23.7634 33.4782 23.124 33.5345 22.262 33.4578C21.8974 33.0826 21.8974 33.0826 21.6975 32.7074C22.9809 31.6184 24.0275 31.5398 25.6489 31.957Z" fill="white"/>
<path d="M48.4166 21.8267C48.363 22.1814 48.363 22.1814 48.2284 22.5771C47.0883 23.1558 46.1051 23.2096 44.8415 23.1399C44.7794 23.0161 44.7173 22.8923 44.6534 22.7647C45.0315 22.5691 45.4123 22.3786 45.7941 22.1902C46.0058 22.0836 46.2176 21.9769 46.4358 21.867C47.1899 21.6081 47.6465 21.6556 48.4166 21.8267Z" fill="white"/>
<path d="M22.8265 31.3942C22.9507 31.4561 23.0749 31.518 23.2028 31.5818C22.7795 32.0508 22.7795 32.0508 22.262 32.5198C22.0136 32.5198 21.7653 32.5198 21.5094 32.5198C21.5094 32.334 21.5094 32.1483 21.5094 31.957C21.9428 31.7569 22.3825 31.5697 22.8265 31.3942Z" fill="white"/>
<path d="M12.1012 28.2051C12.2875 28.2671 12.4738 28.329 12.6657 28.3927C12.2311 28.8261 11.7964 29.2594 11.3486 29.7059C11.2244 29.644 11.1002 29.5821 10.9723 29.5183C11.3448 29.085 11.7174 28.6516 12.1012 28.2051Z" fill="white"/>
<rect x="40.2907" y="34.3677" width="15.9585" height="51.3446" rx="7.97923" fill="#7AFFE1"/>
<rect x="22.5976" y="68.0191" width="15.9585" height="51.3446" rx="7.97923" transform="rotate(-90 22.5976 68.0191)" fill="#7AFFE1"/>
<path d="M107.452 30.0681C103.633 36.5219 81.6874 46.5274 81.6874 46.5274C81.6874 46.5274 79.8954 22.475 83.7144 16.0213C87.5335 9.56755 95.9433 7.48009 102.498 11.3591C109.053 15.2379 111.271 23.6142 107.452 30.0681Z" fill="#4546D7"/>
<path d="M102.909 26.7242C105.173 22.8996 103.857 17.9353 99.9697 15.6362C96.0821 13.3372 91.0949 14.5738 88.8304 18.3984C86.566 22.223 87.8817 27.1873 91.7693 29.4864C95.6569 31.7855 100.644 30.5488 102.909 26.7242Z" fill="white"/>
<path d="M104.816 8.20413C104.797 8.1268 104.796 8.0436 104.818 7.96105L105.794 4.32926C105.864 4.06932 106.132 3.91504 106.392 3.98486C106.652 4.05472 106.807 4.32212 106.737 4.58259L105.761 8.21437C105.691 8.47431 105.423 8.62859 105.163 8.55878C104.985 8.51091 104.857 8.37088 104.816 8.20413Z" fill="#D742BC"/>
<path d="M109.93 13.347C109.883 13.1565 109.955 12.9484 110.125 12.8297L113.476 10.4955C113.697 10.3417 114.001 10.396 114.155 10.6169C114.309 10.8379 114.255 11.1418 114.034 11.2959L110.683 13.6301C110.462 13.784 110.158 13.7296 110.004 13.5087C109.969 13.4582 109.944 13.4034 109.93 13.347Z" fill="#D742BC"/>
<path d="M113.664 20.5181C113.6 20.2566 113.759 19.9922 114.021 19.9276L116.8 19.2415C117.062 19.177 117.326 19.3366 117.391 19.5982C117.455 19.8597 117.296 20.124 117.034 20.1886L114.255 20.8747C113.993 20.9392 113.729 20.7796 113.664 20.5181Z" fill="#D742BC"/>
</svg>
